<mxfile host="app.diagrams.net" agent="Mozilla/5.0 (Windows NT 10.0; Win64; x64) AppleWebKit/537.36 (KHTML, like Gecko) Chrome/133.0.0.0 Safari/537.36" version="26.0.13">
  <diagram name="Page-1" id="Ed-_CJ8u8MagFQpiUTUI">
    <mxGraphModel dx="2261" dy="772" grid="1" gridSize="10" guides="1" tooltips="1" connect="1" arrows="1" fold="1" page="1" pageScale="1" pageWidth="827" pageHeight="1169" math="0" shadow="0">
      <root>
        <mxCell id="0" />
        <mxCell id="1" parent="0" />
        <mxCell id="VAol3gRicBpju-uUSyw3-1" value="Main" style="swimlane;fontStyle=1;align=center;verticalAlign=top;childLayout=stackLayout;horizontal=1;startSize=26;horizontalStack=0;resizeParent=1;resizeParentMax=0;resizeLast=0;collapsible=1;marginBottom=0;whiteSpace=wrap;html=1;" parent="1" vertex="1">
          <mxGeometry x="50" y="60" width="160" height="60" as="geometry" />
        </mxCell>
        <mxCell id="VAol3gRicBpju-uUSyw3-3" value="" style="line;strokeWidth=1;fillColor=none;align=left;verticalAlign=middle;spacingTop=-1;spacingLeft=3;spacingRight=3;rotatable=0;labelPosition=right;points=[];portConstraint=eastwest;strokeColor=inherit;" parent="VAol3gRicBpju-uUSyw3-1" vertex="1">
          <mxGeometry y="26" width="160" height="8" as="geometry" />
        </mxCell>
        <mxCell id="VAol3gRicBpju-uUSyw3-4" value="+Main()" style="text;strokeColor=none;fillColor=none;align=left;verticalAlign=top;spacingLeft=4;spacingRight=4;overflow=hidden;rotatable=0;points=[[0,0.5],[1,0.5]];portConstraint=eastwest;whiteSpace=wrap;html=1;" parent="VAol3gRicBpju-uUSyw3-1" vertex="1">
          <mxGeometry y="34" width="160" height="26" as="geometry" />
        </mxCell>
        <mxCell id="VAol3gRicBpju-uUSyw3-9" value="&lt;i style=&quot;&quot;&gt;Animal&lt;/i&gt;" style="swimlane;fontStyle=1;align=center;verticalAlign=top;childLayout=stackLayout;horizontal=1;startSize=26;horizontalStack=0;resizeParent=1;resizeParentMax=0;resizeLast=0;collapsible=1;marginBottom=0;whiteSpace=wrap;html=1;" parent="1" vertex="1">
          <mxGeometry x="360" y="200" width="160" height="250" as="geometry" />
        </mxCell>
        <mxCell id="VAol3gRicBpju-uUSyw3-10" value="#type&lt;div&gt;#skinType&lt;/div&gt;&lt;div&gt;#tail&lt;/div&gt;&lt;div&gt;#coldBlooded&lt;/div&gt;&lt;div&gt;#hibernates&lt;/div&gt;&lt;div&gt;#legs&lt;/div&gt;&lt;div&gt;#arms&lt;/div&gt;&lt;div&gt;#wings&lt;/div&gt;" style="text;strokeColor=none;fillColor=none;align=left;verticalAlign=top;spacingLeft=4;spacingRight=4;overflow=hidden;rotatable=0;points=[[0,0.5],[1,0.5]];portConstraint=eastwest;whiteSpace=wrap;html=1;" parent="VAol3gRicBpju-uUSyw3-9" vertex="1">
          <mxGeometry y="26" width="160" height="124" as="geometry" />
        </mxCell>
        <mxCell id="VAol3gRicBpju-uUSyw3-11" value="" style="line;strokeWidth=1;fillColor=none;align=left;verticalAlign=middle;spacingTop=-1;spacingLeft=3;spacingRight=3;rotatable=0;labelPosition=right;points=[];portConstraint=eastwest;strokeColor=inherit;" parent="VAol3gRicBpju-uUSyw3-9" vertex="1">
          <mxGeometry y="150" width="160" height="8" as="geometry" />
        </mxCell>
        <mxCell id="VAol3gRicBpju-uUSyw3-12" value="&lt;i&gt;#move()&lt;/i&gt;&lt;div&gt;&lt;i&gt;#eat()&lt;/i&gt;&lt;/div&gt;&lt;div&gt;&lt;i&gt;#birth()&lt;/i&gt;&lt;/div&gt;&lt;div&gt;#hibernate()&lt;/div&gt;&lt;div&gt;#getInfo()&lt;/div&gt;" style="text;strokeColor=none;fillColor=none;align=left;verticalAlign=top;spacingLeft=4;spacingRight=4;overflow=hidden;rotatable=0;points=[[0,0.5],[1,0.5]];portConstraint=eastwest;whiteSpace=wrap;html=1;" parent="VAol3gRicBpju-uUSyw3-9" vertex="1">
          <mxGeometry y="158" width="160" height="92" as="geometry" />
        </mxCell>
        <mxCell id="VAol3gRicBpju-uUSyw3-13" value="Mammal" style="swimlane;fontStyle=1;align=center;verticalAlign=top;childLayout=stackLayout;horizontal=1;startSize=26;horizontalStack=0;resizeParent=1;resizeParentMax=0;resizeLast=0;collapsible=1;marginBottom=0;whiteSpace=wrap;html=1;" parent="1" vertex="1">
          <mxGeometry x="90" y="542" width="160" height="74" as="geometry" />
        </mxCell>
        <mxCell id="VAol3gRicBpju-uUSyw3-15" value="" style="line;strokeWidth=1;fillColor=none;align=left;verticalAlign=middle;spacingTop=-1;spacingLeft=3;spacingRight=3;rotatable=0;labelPosition=right;points=[];portConstraint=eastwest;strokeColor=inherit;" parent="VAol3gRicBpju-uUSyw3-13" vertex="1">
          <mxGeometry y="26" width="160" height="8" as="geometry" />
        </mxCell>
        <mxCell id="VAol3gRicBpju-uUSyw3-16" value="+Mammal()&lt;div&gt;+birth()&lt;/div&gt;" style="text;strokeColor=none;fillColor=none;align=left;verticalAlign=top;spacingLeft=4;spacingRight=4;overflow=hidden;rotatable=0;points=[[0,0.5],[1,0.5]];portConstraint=eastwest;whiteSpace=wrap;html=1;" parent="VAol3gRicBpju-uUSyw3-13" vertex="1">
          <mxGeometry y="34" width="160" height="40" as="geometry" />
        </mxCell>
        <mxCell id="VAol3gRicBpju-uUSyw3-17" value="Reptile" style="swimlane;fontStyle=1;align=center;verticalAlign=top;childLayout=stackLayout;horizontal=1;startSize=26;horizontalStack=0;resizeParent=1;resizeParentMax=0;resizeLast=0;collapsible=1;marginBottom=0;whiteSpace=wrap;html=1;" parent="1" vertex="1">
          <mxGeometry x="590" y="542" width="160" height="70" as="geometry" />
        </mxCell>
        <mxCell id="VAol3gRicBpju-uUSyw3-19" value="" style="line;strokeWidth=1;fillColor=none;align=left;verticalAlign=middle;spacingTop=-1;spacingLeft=3;spacingRight=3;rotatable=0;labelPosition=right;points=[];portConstraint=eastwest;strokeColor=inherit;" parent="VAol3gRicBpju-uUSyw3-17" vertex="1">
          <mxGeometry y="26" width="160" height="8" as="geometry" />
        </mxCell>
        <mxCell id="VAol3gRicBpju-uUSyw3-20" value="&lt;div&gt;+Reptile()&lt;/div&gt;+birth()" style="text;strokeColor=none;fillColor=none;align=left;verticalAlign=top;spacingLeft=4;spacingRight=4;overflow=hidden;rotatable=0;points=[[0,0.5],[1,0.5]];portConstraint=eastwest;whiteSpace=wrap;html=1;" parent="VAol3gRicBpju-uUSyw3-17" vertex="1">
          <mxGeometry y="34" width="160" height="36" as="geometry" />
        </mxCell>
        <mxCell id="VAol3gRicBpju-uUSyw3-21" value="" style="endArrow=classic;html=1;rounded=0;entryX=0.019;entryY=1;entryDx=0;entryDy=0;entryPerimeter=0;exitX=1;exitY=0;exitDx=0;exitDy=0;" parent="1" source="VAol3gRicBpju-uUSyw3-13" target="VAol3gRicBpju-uUSyw3-12" edge="1">
          <mxGeometry width="50" height="50" relative="1" as="geometry">
            <mxPoint x="240" y="585" as="sourcePoint" />
            <mxPoint x="290" y="535" as="targetPoint" />
          </mxGeometry>
        </mxCell>
        <mxCell id="VAol3gRicBpju-uUSyw3-22" value="" style="endArrow=classic;html=1;rounded=0;entryX=0.988;entryY=1;entryDx=0;entryDy=0;entryPerimeter=0;exitX=0;exitY=0;exitDx=0;exitDy=0;" parent="1" source="VAol3gRicBpju-uUSyw3-17" target="VAol3gRicBpju-uUSyw3-12" edge="1">
          <mxGeometry width="50" height="50" relative="1" as="geometry">
            <mxPoint x="260" y="552" as="sourcePoint" />
            <mxPoint x="373" y="460" as="targetPoint" />
          </mxGeometry>
        </mxCell>
        <mxCell id="VAol3gRicBpju-uUSyw3-23" value="Bat" style="swimlane;fontStyle=1;align=center;verticalAlign=top;childLayout=stackLayout;horizontal=1;startSize=26;horizontalStack=0;resizeParent=1;resizeParentMax=0;resizeLast=0;collapsible=1;marginBottom=0;whiteSpace=wrap;html=1;" parent="1" vertex="1">
          <mxGeometry x="110" y="700" width="160" height="90" as="geometry" />
        </mxCell>
        <mxCell id="VAol3gRicBpju-uUSyw3-25" value="" style="line;strokeWidth=1;fillColor=none;align=left;verticalAlign=middle;spacingTop=-1;spacingLeft=3;spacingRight=3;rotatable=0;labelPosition=right;points=[];portConstraint=eastwest;strokeColor=inherit;" parent="VAol3gRicBpju-uUSyw3-23" vertex="1">
          <mxGeometry y="26" width="160" height="8" as="geometry" />
        </mxCell>
        <mxCell id="VAol3gRicBpju-uUSyw3-26" value="&lt;div&gt;+Bat()&lt;/div&gt;+move()&lt;div&gt;+eat()&lt;/div&gt;" style="text;strokeColor=none;fillColor=none;align=left;verticalAlign=top;spacingLeft=4;spacingRight=4;overflow=hidden;rotatable=0;points=[[0,0.5],[1,0.5]];portConstraint=eastwest;whiteSpace=wrap;html=1;" parent="VAol3gRicBpju-uUSyw3-23" vertex="1">
          <mxGeometry y="34" width="160" height="56" as="geometry" />
        </mxCell>
        <mxCell id="VAol3gRicBpju-uUSyw3-27" value="Gorilla" style="swimlane;fontStyle=1;align=center;verticalAlign=top;childLayout=stackLayout;horizontal=1;startSize=26;horizontalStack=0;resizeParent=1;resizeParentMax=0;resizeLast=0;collapsible=1;marginBottom=0;whiteSpace=wrap;html=1;" parent="1" vertex="1">
          <mxGeometry x="-60" y="700" width="160" height="90" as="geometry" />
        </mxCell>
        <mxCell id="VAol3gRicBpju-uUSyw3-28" value="" style="line;strokeWidth=1;fillColor=none;align=left;verticalAlign=middle;spacingTop=-1;spacingLeft=3;spacingRight=3;rotatable=0;labelPosition=right;points=[];portConstraint=eastwest;strokeColor=inherit;" parent="VAol3gRicBpju-uUSyw3-27" vertex="1">
          <mxGeometry y="26" width="160" height="8" as="geometry" />
        </mxCell>
        <mxCell id="VAol3gRicBpju-uUSyw3-29" value="&lt;div&gt;+Gorilla()&lt;/div&gt;+move()&lt;div&gt;+eat()&lt;/div&gt;" style="text;strokeColor=none;fillColor=none;align=left;verticalAlign=top;spacingLeft=4;spacingRight=4;overflow=hidden;rotatable=0;points=[[0,0.5],[1,0.5]];portConstraint=eastwest;whiteSpace=wrap;html=1;" parent="VAol3gRicBpju-uUSyw3-27" vertex="1">
          <mxGeometry y="34" width="160" height="56" as="geometry" />
        </mxCell>
        <mxCell id="VAol3gRicBpju-uUSyw3-30" value="Otter" style="swimlane;fontStyle=1;align=center;verticalAlign=top;childLayout=stackLayout;horizontal=1;startSize=26;horizontalStack=0;resizeParent=1;resizeParentMax=0;resizeLast=0;collapsible=1;marginBottom=0;whiteSpace=wrap;html=1;" parent="1" vertex="1">
          <mxGeometry x="280" y="700" width="160" height="90" as="geometry" />
        </mxCell>
        <mxCell id="VAol3gRicBpju-uUSyw3-31" value="" style="line;strokeWidth=1;fillColor=none;align=left;verticalAlign=middle;spacingTop=-1;spacingLeft=3;spacingRight=3;rotatable=0;labelPosition=right;points=[];portConstraint=eastwest;strokeColor=inherit;" parent="VAol3gRicBpju-uUSyw3-30" vertex="1">
          <mxGeometry y="26" width="160" height="8" as="geometry" />
        </mxCell>
        <mxCell id="VAol3gRicBpju-uUSyw3-32" value="&lt;div&gt;+Otter()&lt;/div&gt;+move()&lt;div&gt;+eat()&lt;/div&gt;" style="text;strokeColor=none;fillColor=none;align=left;verticalAlign=top;spacingLeft=4;spacingRight=4;overflow=hidden;rotatable=0;points=[[0,0.5],[1,0.5]];portConstraint=eastwest;whiteSpace=wrap;html=1;" parent="VAol3gRicBpju-uUSyw3-30" vertex="1">
          <mxGeometry y="34" width="160" height="56" as="geometry" />
        </mxCell>
        <mxCell id="VAol3gRicBpju-uUSyw3-33" value="" style="endArrow=classic;html=1;rounded=0;exitX=0.644;exitY=-0.044;exitDx=0;exitDy=0;exitPerimeter=0;entryX=0.25;entryY=1.125;entryDx=0;entryDy=0;entryPerimeter=0;" parent="1" source="VAol3gRicBpju-uUSyw3-27" target="VAol3gRicBpju-uUSyw3-16" edge="1">
          <mxGeometry width="50" height="50" relative="1" as="geometry">
            <mxPoint x="390" y="560" as="sourcePoint" />
            <mxPoint x="440" y="510" as="targetPoint" />
          </mxGeometry>
        </mxCell>
        <mxCell id="VAol3gRicBpju-uUSyw3-34" value="" style="endArrow=classic;html=1;rounded=0;exitX=0.5;exitY=0;exitDx=0;exitDy=0;entryX=0.513;entryY=1;entryDx=0;entryDy=0;entryPerimeter=0;" parent="1" source="VAol3gRicBpju-uUSyw3-23" target="VAol3gRicBpju-uUSyw3-16" edge="1">
          <mxGeometry width="50" height="50" relative="1" as="geometry">
            <mxPoint x="53" y="706" as="sourcePoint" />
            <mxPoint x="175" y="631" as="targetPoint" />
          </mxGeometry>
        </mxCell>
        <mxCell id="VAol3gRicBpju-uUSyw3-35" value="" style="endArrow=classic;html=1;rounded=0;exitX=0.5;exitY=0;exitDx=0;exitDy=0;entryX=0.713;entryY=0.95;entryDx=0;entryDy=0;entryPerimeter=0;" parent="1" source="VAol3gRicBpju-uUSyw3-30" target="VAol3gRicBpju-uUSyw3-16" edge="1">
          <mxGeometry width="50" height="50" relative="1" as="geometry">
            <mxPoint x="63" y="716" as="sourcePoint" />
            <mxPoint x="170" y="620" as="targetPoint" />
          </mxGeometry>
        </mxCell>
        <mxCell id="VAol3gRicBpju-uUSyw3-37" value="Snake" style="swimlane;fontStyle=1;align=center;verticalAlign=top;childLayout=stackLayout;horizontal=1;startSize=26;horizontalStack=0;resizeParent=1;resizeParentMax=0;resizeLast=0;collapsible=1;marginBottom=0;whiteSpace=wrap;html=1;" parent="1" vertex="1">
          <mxGeometry x="470" y="710" width="160" height="90" as="geometry" />
        </mxCell>
        <mxCell id="VAol3gRicBpju-uUSyw3-38" value="" style="line;strokeWidth=1;fillColor=none;align=left;verticalAlign=middle;spacingTop=-1;spacingLeft=3;spacingRight=3;rotatable=0;labelPosition=right;points=[];portConstraint=eastwest;strokeColor=inherit;" parent="VAol3gRicBpju-uUSyw3-37" vertex="1">
          <mxGeometry y="26" width="160" height="8" as="geometry" />
        </mxCell>
        <mxCell id="VAol3gRicBpju-uUSyw3-39" value="&lt;div&gt;+Snake()&lt;/div&gt;+move()&lt;div&gt;+eat()&lt;/div&gt;" style="text;strokeColor=none;fillColor=none;align=left;verticalAlign=top;spacingLeft=4;spacingRight=4;overflow=hidden;rotatable=0;points=[[0,0.5],[1,0.5]];portConstraint=eastwest;whiteSpace=wrap;html=1;" parent="VAol3gRicBpju-uUSyw3-37" vertex="1">
          <mxGeometry y="34" width="160" height="56" as="geometry" />
        </mxCell>
        <mxCell id="VAol3gRicBpju-uUSyw3-40" value="Tortoise" style="swimlane;fontStyle=1;align=center;verticalAlign=top;childLayout=stackLayout;horizontal=1;startSize=26;horizontalStack=0;resizeParent=1;resizeParentMax=0;resizeLast=0;collapsible=1;marginBottom=0;whiteSpace=wrap;html=1;" parent="1" vertex="1">
          <mxGeometry x="830" y="710" width="160" height="90" as="geometry" />
        </mxCell>
        <mxCell id="VAol3gRicBpju-uUSyw3-41" value="" style="line;strokeWidth=1;fillColor=none;align=left;verticalAlign=middle;spacingTop=-1;spacingLeft=3;spacingRight=3;rotatable=0;labelPosition=right;points=[];portConstraint=eastwest;strokeColor=inherit;" parent="VAol3gRicBpju-uUSyw3-40" vertex="1">
          <mxGeometry y="26" width="160" height="8" as="geometry" />
        </mxCell>
        <mxCell id="VAol3gRicBpju-uUSyw3-42" value="&lt;div&gt;+Tortoise()&lt;/div&gt;+move()&lt;div&gt;+eat()&lt;/div&gt;" style="text;strokeColor=none;fillColor=none;align=left;verticalAlign=top;spacingLeft=4;spacingRight=4;overflow=hidden;rotatable=0;points=[[0,0.5],[1,0.5]];portConstraint=eastwest;whiteSpace=wrap;html=1;" parent="VAol3gRicBpju-uUSyw3-40" vertex="1">
          <mxGeometry y="34" width="160" height="56" as="geometry" />
        </mxCell>
        <mxCell id="VAol3gRicBpju-uUSyw3-43" value="Turtle" style="swimlane;fontStyle=1;align=center;verticalAlign=top;childLayout=stackLayout;horizontal=1;startSize=26;horizontalStack=0;resizeParent=1;resizeParentMax=0;resizeLast=0;collapsible=1;marginBottom=0;whiteSpace=wrap;html=1;" parent="1" vertex="1">
          <mxGeometry x="640" y="710" width="160" height="90" as="geometry" />
        </mxCell>
        <mxCell id="VAol3gRicBpju-uUSyw3-44" value="" style="line;strokeWidth=1;fillColor=none;align=left;verticalAlign=middle;spacingTop=-1;spacingLeft=3;spacingRight=3;rotatable=0;labelPosition=right;points=[];portConstraint=eastwest;strokeColor=inherit;" parent="VAol3gRicBpju-uUSyw3-43" vertex="1">
          <mxGeometry y="26" width="160" height="8" as="geometry" />
        </mxCell>
        <mxCell id="VAol3gRicBpju-uUSyw3-45" value="&lt;div&gt;+Turtle()&lt;/div&gt;+move()&lt;div&gt;+eat()&lt;/div&gt;" style="text;strokeColor=none;fillColor=none;align=left;verticalAlign=top;spacingLeft=4;spacingRight=4;overflow=hidden;rotatable=0;points=[[0,0.5],[1,0.5]];portConstraint=eastwest;whiteSpace=wrap;html=1;" parent="VAol3gRicBpju-uUSyw3-43" vertex="1">
          <mxGeometry y="34" width="160" height="56" as="geometry" />
        </mxCell>
        <mxCell id="VAol3gRicBpju-uUSyw3-46" value="" style="endArrow=classic;html=1;rounded=0;entryX=0.844;entryY=1.028;entryDx=0;entryDy=0;entryPerimeter=0;exitX=0.5;exitY=0;exitDx=0;exitDy=0;" parent="1" source="VAol3gRicBpju-uUSyw3-40" target="VAol3gRicBpju-uUSyw3-20" edge="1">
          <mxGeometry width="50" height="50" relative="1" as="geometry">
            <mxPoint x="860" y="690" as="sourcePoint" />
            <mxPoint x="910" y="640" as="targetPoint" />
          </mxGeometry>
        </mxCell>
        <mxCell id="VAol3gRicBpju-uUSyw3-47" value="" style="endArrow=classic;html=1;rounded=0;entryX=0.125;entryY=1;entryDx=0;entryDy=0;entryPerimeter=0;exitX=0.55;exitY=-0.044;exitDx=0;exitDy=0;exitPerimeter=0;" parent="1" source="VAol3gRicBpju-uUSyw3-37" target="VAol3gRicBpju-uUSyw3-20" edge="1">
          <mxGeometry width="50" height="50" relative="1" as="geometry">
            <mxPoint x="540" y="710" as="sourcePoint" />
            <mxPoint x="590" y="660" as="targetPoint" />
          </mxGeometry>
        </mxCell>
        <mxCell id="VAol3gRicBpju-uUSyw3-48" value="" style="endArrow=classic;html=1;rounded=0;exitX=0.5;exitY=0;exitDx=0;exitDy=0;entryX=0.488;entryY=1.083;entryDx=0;entryDy=0;entryPerimeter=0;" parent="1" source="VAol3gRicBpju-uUSyw3-43" target="VAol3gRicBpju-uUSyw3-20" edge="1">
          <mxGeometry width="50" height="50" relative="1" as="geometry">
            <mxPoint x="660" y="690" as="sourcePoint" />
            <mxPoint x="710" y="640" as="targetPoint" />
          </mxGeometry>
        </mxCell>
        <mxCell id="VAol3gRicBpju-uUSyw3-49" value="Console" style="swimlane;fontStyle=1;align=center;verticalAlign=top;childLayout=stackLayout;horizontal=1;startSize=26;horizontalStack=0;resizeParent=1;resizeParentMax=0;resizeLast=0;collapsible=1;marginBottom=0;whiteSpace=wrap;html=1;" parent="1" vertex="1">
          <mxGeometry x="240" y="60" width="160" height="60" as="geometry" />
        </mxCell>
        <mxCell id="VAol3gRicBpju-uUSyw3-50" value="" style="line;strokeWidth=1;fillColor=none;align=left;verticalAlign=middle;spacingTop=-1;spacingLeft=3;spacingRight=3;rotatable=0;labelPosition=right;points=[];portConstraint=eastwest;strokeColor=inherit;" parent="VAol3gRicBpju-uUSyw3-49" vertex="1">
          <mxGeometry y="26" width="160" height="8" as="geometry" />
        </mxCell>
        <mxCell id="VAol3gRicBpju-uUSyw3-51" value="+readLine()" style="text;strokeColor=none;fillColor=none;align=left;verticalAlign=top;spacingLeft=4;spacingRight=4;overflow=hidden;rotatable=0;points=[[0,0.5],[1,0.5]];portConstraint=eastwest;whiteSpace=wrap;html=1;" parent="VAol3gRicBpju-uUSyw3-49" vertex="1">
          <mxGeometry y="34" width="160" height="26" as="geometry" />
        </mxCell>
      </root>
    </mxGraphModel>
  </diagram>
</mxfile>
